Coordinates
version=1
nRows=17
nColumns=33
inDegrees=yes

Units are S.I. units (second, meters, Newtons, ...)
Angles are in degrees.

endheader
time	ground_thorax_rot_x	ground_thorax_rot_y	ground_thorax_rot_z	ground_thorax_tx	ground_thorax_ty	ground_thorax_tz	clav_prot_r	clav_elev_r	scapula_abduction_r	scapula_elevation_r	scapula_upward_rot_r	scapula_winging_r	shoulder_elv_r	plane_of_elev_r	axial_rot_r	elbow_flexion_r	pro_sup_r	wrist_flex_r	wrist_dev_r	clav_prot_l	clav_elev_l	scapula_abduction_l	scapula_elevation_l	scapula_upward_rot_l	scapula_winging_l	shoulder_elv_l	plane_of_elev_l	axial_rot_l	elbow_flexion_l	pro_sup_l	wrist_flex_l	wrist_dev_l	
5.4200	39.267834	1.353336	8.843123	-162.573013	888.992107	-8.688287	13.334417	38.260022	38.810082	45.000000	-37.314041	2072.818134	-1731.168750	32.408673	66.723493	-342.286466	66.956854	17.190855	3.606885	11.864279	-45.000000	-39.190685	45.000000	-40.907473	-261.358426	-2971.861699	141.930624	145.322015	373.444714	49.411507	4.636877	-21.807631	
5.4300	39.297893	1.170743	8.563385	-160.368607	890.802096	-8.761717	13.237326	38.395263	39.021766	45.000000	-36.522947	2072.707545	-1731.076915	32.356842	66.493345	-342.129490	68.294378	17.105673	3.511313	11.805717	-45.000000	-39.500926	45.000000	-39.982190	-261.351997	-2971.687914	141.842626	145.767131	373.479306	49.424075	4.589265	-21.812037	
5.4400	39.326262	0.980655	8.281925	-158.065350	892.477406	-8.837470	13.168284	38.541712	39.247260	45.000000	-35.728058	2072.591888	-1731.001216	32.312731	66.261808	-341.979711	69.568475	17.017221	3.421732	11.728858	-45.000000	-39.808222	45.000000	-38.997668	-261.353948	-2971.530187	141.760845	146.202078	373.502909	49.357478	4.559298	-21.821989	
5.4500	39.350709	0.785824	8.000105	-155.665110	894.001858	-8.912987	13.110217	38.696900	39.485149	45.000000	-34.928541	2072.468474	-1730.944951	32.275727	66.036284	-341.837772	70.773272	16.928962	3.339728	11.639215	-45.000000	-40.114701	45.000000	-37.969388	-261.365320	-2971.390540	141.681048	146.635982	373.513235	49.198384	4.545721	-21.833795	
5.4600	39.376359	0.565706	7.700337	-153.169802	895.359756	-8.985632	13.109318	38.865413	39.754910	45.000000	-34.172833	2072.306469	-1730.921172	32.297821	65.828548	-341.716020	71.916628	16.838491	3.267461	11.535652	-45.000000	-40.421924	45.000000	-36.886233	-261.390457	-2971.278069	141.597603	147.075963	373.503321	48.933762	4.554294	-21.850564	
5.4700	39.394309	0.347468	7.411995	-150.581275	896.535925	-9.052866	13.134951	39.043362	40.031708	45.000000	-33.421746	2072.142829	-1730.916334	32.324898	65.623790	-341.604202	72.998662	16.742521	3.198668	11.416785	-45.000000	-40.731637	45.000000	-35.767915	-261.431345	-2971.188102	141.528956	147.510362	373.477639	48.546521	4.589578	-21.877318	
5.4800	39.408663	0.111764	7.119292	-147.901419	897.516093	-9.112413	13.214374	39.231145	40.333583	45.000000	-32.718429	2071.954305	-1730.940802	32.400132	65.427747	-341.508791	74.030267	16.643198	3.135960	11.288651	-45.000000	-41.040072	45.000000	-34.612615	-261.488303	-2971.127624	141.462886	147.949233	373.427167	48.020380	4.655847	-21.913366	
5.4900	39.412149	-0.115887	6.847462	-145.132179	898.287306	-9.162311	13.300661	39.423409	40.631442	45.000000	-32.007872	2071.784419	-1730.977295	32.460880	65.225393	-341.416158	75.006159	16.543642	3.076116	11.150648	-45.000000	-41.345352	45.000000	-33.441522	-261.561196	-2971.091023	141.411877	148.389187	373.358344	47.326935	4.756633	-21.959975	
5.5000	39.404772	-0.338153	6.593952	-142.275678	898.838666	-9.200818	13.382715	39.614022	40.923709	45.000000	-31.292027	2071.636345	-1731.024711	32.507677	65.015948	-341.324771	75.919947	16.450142	3.021366	11.006473	-45.000000	-41.643351	45.000000	-32.273617	-261.648381	-2971.077568	141.363802	148.840226	373.266792	46.436337	4.896442	-22.014714	
5.5100	39.381938	-0.536843	6.376449	-139.334043	899.162110	-9.226221	13.453897	39.808132	41.195344	44.999999	-30.526045	2071.535367	-1731.077574	32.492263	64.794948	-341.227208	76.766419	16.358390	2.966028	10.844387	-45.000000	-41.935495	45.000000	-31.109661	-261.752374	-2971.086138	141.337376	149.295810	373.155348	45.310152	5.088948	-22.087161	
5.5200	39.350647	-0.741784	6.166539	-136.309648	899.252920	-9.236627	13.530862	40.006269	41.471852	44.999999	-29.745984	2071.445056	-1731.153326	32.469098	64.584122	-341.134303	77.549535	16.274591	2.916202	10.672862	-45.000000	-42.221419	45.000000	-29.942332	-261.868790	-2971.126029	141.311256	149.756713	373.010250	43.913654	5.339483	-22.169903	
5.5300	39.312509	-0.951352	5.963952	-133.204704	899.109868	-9.229814	13.613143	40.212703	41.752310	44.999998	-28.943077	2071.359205	-1731.255095	32.438760	64.388050	-341.049010	78.271656	16.197392	2.872047	10.490958	-45.000000	-42.508195	45.000000	-28.762721	-261.997082	-2971.200833	141.294594	150.208574	372.833890	42.218010	5.653040	-22.261422	
5.5400	39.268066	-1.164074	5.765239	-130.020993	898.734858	-9.203274	13.660402	40.415053	42.029152	44.999997	-28.120853	2071.279495	-1731.380346	32.406253	64.208836	-340.968326	78.927318	16.136443	2.837365	10.311112	-45.000000	-42.792410	45.000000	-27.602805	-262.134111	-2971.304857	141.267823	150.642973	372.625928	40.218313	6.019661	-22.343951	
5.5500	39.218126	-1.378405	5.575045	-126.759713	898.132027	-9.154419	13.690717	40.616667	42.305574	44.999994	-27.287799	2071.208825	-1731.525738	32.369201	64.034603	-340.894007	79.518586	16.088114	2.810470	10.129774	-45.000000	-43.074370	45.000000	-26.456885	-262.279659	-2971.440757	141.240308	151.052153	372.387849	37.923236	6.442668	-22.415160	
5.5600	39.163096	-1.589085	5.396284	-123.421784	897.306390	-9.080965	13.648755	40.795144	42.574900	44.999989	-26.473091	2071.151435	-1731.681700	32.341451	63.847347	-340.822310	80.038657	16.064618	2.796663	9.964866	-45.000000	-43.342196	45.000000	-25.386410	-262.430222	-2971.597640	141.182660	151.431749	372.126308	35.391045	6.889912	-22.448099	
5.5700	39.104131	-1.794261	5.232140	-120.008119	896.262520	-8.981361	13.587709	40.964724	42.841425	44.999980	-25.685306	2071.101604	-1731.850714	32.323539	63.630563	-340.758535	80.488854	16.055191	2.791723	9.803293	-45.000000	-43.603866	45.000000	-24.369834	-262.591929	-2971.780454	141.119167	151.793217	371.854655	32.688776	7.363687	-22.450556	
5.5800	39.042121	-2.002409	5.073645	-116.519744	895.003499	-8.855199	13.528662	41.135979	43.112130	44.999965	-24.905926	2071.063331	-1732.037229	32.300052	63.390566	-340.700912	80.871171	16.054587	2.792612	9.640191	-45.000000	-43.861069	45.000000	-23.370099	-262.765324	-2971.995789	141.060808	152.133460	371.575996	29.878171	7.864199	-22.419799	
